<svg version="1.1" xmlns="http://www.w3.org/2000/svg" xmlns:xlink="http://www.w3.org/1999/xlink" fill="none" width="24" height="24" viewBox="0,0,256,256"><g fill-rule="nonzero" stroke="currentColor" stroke-width="1" stroke-linecap="none" stroke-linejoin="none" stroke-miterlimit="10" stroke-dasharray="" stroke-dashoffset="0" font-family="none" font-weight="none" font-size="none" text-anchor="none" style="mix-blend-mode: normal"><g transform="translate(0,0.00005) scale(10.66667,10.66667)"><path d="M5,11.784c0,-1.3578 0,-2.03667 0.27446,-2.63341c0.27446,-0.59674 0.78991,-1.03855 1.82079,-1.92217l1,-0.85714c1.86332,-1.59713 2.79495,-2.39569 3.90475,-2.39569c1.1098,0 2.0414,0.79856 3.9047,2.39569l1,0.85714c1.0309,0.88362 1.5464,1.32543 1.8208,1.92217c0.2745,0.59674 0.2745,1.27561 0.2745,2.63341v4.2404c0,1.8856 0,2.8284 -0.5858,3.4142c-0.5858,0.5858 -1.5286,0.5858 -3.4142,0.5858h-6c-1.88562,0 -2.82843,0 -3.41421,-0.5858c-0.58579,-0.5858 -0.58579,-1.5286 -0.58579,-3.4142z" stroke-linecap="butt" stroke-linejoin="miter"></path><path d="M14.5,20.0244v-5c0,-0.5523 -0.4477,-1 -1,-1h-3c-0.55228,0 -1,0.4477 -1,1v5" stroke-linecap="round" stroke-linejoin="round"></path></g></g></svg>
